<svg xmlns="http://www.w3.org/2000/svg" version="1.1" xmlns:xlink="http://www.w3.org/1999/xlink" xmlns:svgjs="http://svgjs.dev/svgjs" width="100%" height="100%" viewBox="0 0 1000 600"><rect width="1000" height="600" x="0" y="0" fill="#508bed"/><g><circle r="166.66666666666666" cx="354.4977671305338" cy="376.7199828187677" fill="#cccccc" transform="matrix(0.6654914731733507,0,0,0.6654914731733506,0,49.29604802527267)"/><path d="M410.74420939972526 377.01948527979863L410.74420939972526 430.584801724495Q403.3283508930048 441.1951838956489 390.03685064634425 446.4718524485077Q376.77387293240184 451.71999846864827 359.1184251798635 451.71999846864827L359.1184251798635 451.71999846864827Q341.26331969829806 451.71999846864827 327.42989132999253 443.3628963822287Q313.59646296168705 434.977271763091 306.00946925865765 419.54658156256875Q298.45099808834635 404.08736882932834 298.2513403593193 383.7508030012834L298.2513403593193 383.7508030012834L298.2513403593193 371.0012308762678Q298.2513403593193 338.02918305407985 313.65350802712334 319.86032971261466Q329.02715316220923 301.71999890386763 356.9221901605655 301.71999890386763L356.9221901605655 301.71999890386763Q379.76873886780817 301.71999890386763 393.7162573669863 313.41423731831145Q407.6352533334463 325.0799532000371 410.74420939972526 346.52889780409015L410.74420939972526 346.52889780409015L391.49149981497015 346.52889780409015Q386.10074113123875 317.55000456244403 357.00775775871995 317.55000456244403L357.00775775871995 317.55000456244403Q337.66948057581044 317.55000456244403 327.68659412445595 331.1552526690043Q317.70370767310146 344.7319782428464 317.58961754222884 370.51634782005914L317.58961754222884 370.51634782005914L317.58961754222884 382.4387664962482Q317.58961754222884 406.99666716658027 328.82749543318215 421.4861137874033Q340.0653733241355 435.9755604082264 359.20399277801795 435.9755604082264L359.20399277801795 435.9755604082264Q370.0425552109171 435.9755604082264 378.17147703559147 433.5796676599013Q386.30039886026583 431.1837749115762 391.60558994584284 425.450745835227L391.60558994584284 425.450745835227L391.60558994584284 392.6783557420661L357.8063886748283 392.6783557420661L357.8063886748283 377.01948527979863L410.74420939972526 377.01948527979863Z " fill="white" transform="matrix(0.6654914731733507,0,0,0.6654914731733506,0,49.29604802527267)"/><path d="M656.0791254658559 394.84614194182706L623.0078279380934 394.84614194182706L623.0078279380934 449.8004373362182L604.4977733516594 449.8004373362182L604.4977733516594 309.4256678133197L656.271081587493 309.4256678133197Q679.3058161839444 309.4256678133197 692.3862547583578 321.18983583936455Q705.4392710296803 332.95400386540933 705.4392710296803 352.341572150756L705.4392710296803 352.341572150756Q705.4392710296803 372.7711879535611 692.660477789268 383.82237609923953Q679.8816845488557 394.84614194182706 656.0791254658559 394.84614194182706L656.0791254658559 394.84614194182706ZM623.0078279380934 324.67246833192326L623.0078279380934 379.70903063558757L656.271081587493 379.70903063558757Q671.1065475597313 379.70903063558757 679.0315931530342 372.716343347379Q686.9292164432461 365.72365605917054 686.9292164432461 352.5335282723931L686.9292164432461 352.5335282723931Q686.9292164432461 340.0015357597999 679.0315931530342 332.4604024097711Q671.1065475597313 324.9466913628334 657.3405514080425 324.67246833192326L657.3405514080425 324.67246833192326L623.0078279380934 324.67246833192326ZM776.6824144601336 344.9101280130913L776.6824144601336 361.5006213831545Q772.6239136026637 360.8150638058791 767.9072774710093 360.8150638058791L767.9072774710093 360.8150638058791Q750.3570034927606 360.8150638058791 744.1047183880095 375.7602189904815L744.1047183880095 375.7602189904815L744.1047183880095 449.8004373362182L726.2527990757598 449.8004373362182L726.2527990757598 345.48599637800254L743.6111169323714 345.48599637800254L743.9127622663724 357.5518097380486Q752.6878992554967 343.56643516163166 768.7847911699217 343.56643516163166L768.7847911699217 343.56643516163166Q773.9950287572143 343.56643516163166 776.6824144601336 344.9101280130913L776.6824144601336 344.9101280130913ZM786.4173320574436 397.94486219111155L786.4173320574436 396.6834362489249Q786.4173320574436 381.35436882104835 792.4502387374665 369.09659933936524Q798.4831454174895 356.8662521607732 809.2326882291667 350.2026325096569Q819.9822310408441 343.56643516163166 833.7482271925329 343.56643516163166L833.7482271925329 343.56643516163166Q855.0553566942505 343.56643516163166 868.218062177937 358.3196342245969Q881.3807676616235 373.0728332875622 881.3807676616235 397.5609499478374L881.3807676616235 397.5609499478374L881.3807676616235 398.794953586933Q881.3807676616235 414.04175410553654 875.5398171032376 426.1349897686735Q869.7262888479428 438.2282254318105 858.8670568239014 444.9741119921999Q848.0352471029511 451.7199985525892 833.94018331417 451.7199985525892L833.94018331417 451.7199985525892Q812.7427430248166 451.7199985525892 799.5800375411301 436.96679948962384Q786.4173320574436 422.24102272974955 786.4173320574436 397.94486219111155L786.4173320574436 397.94486219111155ZM804.3515182789664 398.794953586933L804.3515182789664 398.794953586933Q804.3515182789664 416.1532714435446 812.4136753877243 426.65601352740276Q820.4484101933914 437.1587556112609 833.94018331417 437.1587556112609L833.94018331417 437.1587556112609Q847.5416456473127 437.1587556112609 855.5489581498888 426.51890201194766Q863.5562706524646 415.8516261095435 863.5562706524646 396.6834362489249L863.5562706524646 396.6834362489249Q863.5562706524646 379.5170745139504 855.4118466344336 368.8772209146371Q847.2400003133115 358.2099450122328 833.7482271925329 358.2099450122328L833.7482271925329 358.2099450122328Q820.5580994057553 358.2099450122328 812.4410976908154 368.7126870960911Q804.3515182789664 379.2428514830403 804.3515182789664 398.794953586933ZM899.3972207924195 398.13681831274863L899.3972207924195 396.76570315819794Q899.3972207924195 372.7711879535611 910.77747657519 358.15510040605085Q922.1577323579608 343.56643516163166 940.5855200351219 343.56643516163166L940.5855200351219 343.56643516163166Q958.9036184999189 343.56643516163166 969.5983167054143 356.09842767422487L969.5983167054143 356.09842767422487L969.5983167054143 301.7200006447449L987.4228137145732 301.7200006447449L987.4228137145732 449.8004373362182L971.051698769238 449.8004373362182L970.1741850703255 438.61213767508474Q959.4794868648302 451.7199985525892 940.3935639134849 451.7199985525892L940.3935639134849 451.7199985525892Q922.2674215703247 451.7199985525892 910.8323211813721 436.8845325803508Q899.3972207924195 422.0216443050214 899.3972207924195 398.13681831274863L899.3972207924195 398.13681831274863ZM917.2491401046692 398.794953586933L917.2491401046692 398.794953586933Q917.2491401046692 416.53718368681876 924.5708950299698 426.57374661812975Q931.8926499552705 436.5828872463497 944.8085547111378 436.5828872463497L944.8085547111378 436.5828872463497Q961.7829603244753 436.5828872463497 969.5983167054143 421.3635090308372L969.5983167054143 421.3635090308372L969.5983167054143 373.4567455308364Q961.5910042028382 358.70354646787115 945.0005108327751 358.70354646787115L945.0005108327751 358.70354646787115Q931.8926499552705 358.70354646787115 924.5708950299698 368.82237630845515Q917.2491401046692 378.94120614903915 917.2491401046692 398.794953586933ZM1079.8908197374708 449.8004373362182L1079.5069074941966 439.4896513739971Q1069.0864323196115 451.7199985525892 1048.9310395477164 451.7199985525892L1048.9310395477164 451.7199985525892Q1032.2582792683802 451.7199985525892 1023.537986885438 442.0399255614614Q1014.8176945024956 432.35985257033354 1014.7080052901316 413.35619652826114L1014.7080052901316 413.35619652826114L1014.7080052901316 345.48599637800254L1032.5599246023812 345.48599637800254L1032.5599246023812 412.89001737571397Q1032.5599246023812 436.5828872463497 1051.8378036753638 436.5828872463497L1051.8378036753638 436.5828872463497Q1072.267419478169 436.5828872463497 1079.0133060385583 421.3635090308372L1079.0133060385583 421.3635090308372L1079.0133060385583 345.48599637800254L1096.8378030477174 345.48599637800254L1096.8378030477174 449.8004373362182L1079.8908197374708 449.8004373362182ZM1130.293012818754 320.23005523117905L1148.1449321310038 320.23005523117905L1148.1449321310038 345.48599637800254L1167.6147673256232 345.48599637800254L1167.6147673256232 359.2794148327824L1148.1449321310038 359.2794148327824L1148.1449321310038 423.96862782448346Q1148.1449321310038 430.22091292923454 1150.7500509246497 433.3744777847011Q1153.355169718296 436.50062033707667 1159.6074548230472 436.50062033707667L1159.6074548230472 436.50062033707667Q1162.706175072332 436.50062033707667 1168.0809464781705 435.3488836072541L1168.0809464781705 435.3488836072541L1168.0809464781705 449.8004373362182Q1161.0608368868711 451.7199985525892 1154.3972172357549 451.7199985525892L1154.3972172357549 451.7199985525892Q1142.441093088073 451.7199985525892 1136.3807641049589 444.5079328396526Q1130.293012818754 437.268444823625 1130.293012818754 423.96862782448346L1130.293012818754 423.96862782448346L1130.293012818754 359.2794148327824L1111.3167790797725 359.2794148327824L1111.3167790797725 345.48599637800254L1130.293012818754 345.48599637800254L1130.293012818754 320.23005523117905ZM1207.8158636570492 345.48599637800254L1207.8158636570492 449.8004373362182L1189.9913666478906 449.8004373362182L1189.9913666478906 345.48599637800254L1207.8158636570492 345.48599637800254ZM1188.5379845840666 317.81689255916984L1188.5379845840666 317.81689255916984Q1188.5379845840666 313.48416867078976 1191.170525680804 310.49513763386926Q1193.830489080632 307.5061065969487 1199.040726667925 307.5061065969487Q1204.2509642552172 307.5061065969487 1206.9383499581368 310.49513763386926Q1209.6531579641473 313.48416867078976 1209.6531579641473 317.81689255916984Q1209.6531579641473 322.14961644755004 1206.9383499581368 325.05638057519747Q1204.2509642552172 327.93572239975384 1199.040726667925 327.93572239975384Q1193.830489080632 327.93572239975384 1191.170525680804 325.05638057519747Q1188.5379845840666 322.14961644755004 1188.5379845840666 317.81689255916984ZM1244.2601044650064 345.48599637800254L1270.7774715540163 425.61396600994425L1296.609281065751 345.48599637800254L1314.8176903181843 345.48599637800254L1277.4136689020415 449.8004373362182L1263.83962887199 449.8004373362182L1226.024272909482 345.48599637800254L1244.2601044650064 345.48599637800254Z " fill="#ffff" transform="matrix(0.6654914731733507,0,0,0.6654914731733506,0,49.29604802527267)"/></g></svg>